<mxfile host="app.diagrams.net" modified="2021-10-12T11:43:27.877Z" agent="5.0 (Windows NT 10.0; Win64; x64) AppleWebKit/537.36 (KHTML, like Gecko) Chrome/94.0.4606.81 Safari/537.36" etag="oIeNk8AjF1gFmhfx0W17" version="15.5.1" type="github">
  <diagram id="kgpKYQtTHZ0yAKxKKP6v" name="Page-1">
    <mxGraphModel dx="1564" dy="888" grid="1" gridSize="10" guides="1" tooltips="1" connect="1" arrows="1" fold="1" page="1" pageScale="1" pageWidth="850" pageHeight="1100" math="0" shadow="0">
      <root>
        <mxCell id="0" />
        <mxCell id="1" parent="0" />
        <mxCell id="pxmwZdFYC_kVEUrY3N0Y-3" value="" style="endArrow=classic;html=1;rounded=0;exitX=0.5;exitY=1;exitDx=0;exitDy=0;entryX=0.5;entryY=0;entryDx=0;entryDy=0;" edge="1" parent="1" source="pxmwZdFYC_kVEUrY3N0Y-2" target="pxmwZdFYC_kVEUrY3N0Y-9">
          <mxGeometry width="50" height="50" relative="1" as="geometry">
            <mxPoint x="380" y="270" as="sourcePoint" />
            <mxPoint x="280" y="140" as="targetPoint" />
            <Array as="points" />
          </mxGeometry>
        </mxCell>
        <mxCell id="pxmwZdFYC_kVEUrY3N0Y-11" value="" style="edgeStyle=orthogonalEdgeStyle;rounded=0;orthogonalLoop=1;jettySize=auto;html=1;" edge="1" parent="1" source="pxmwZdFYC_kVEUrY3N0Y-9" target="pxmwZdFYC_kVEUrY3N0Y-10">
          <mxGeometry relative="1" as="geometry" />
        </mxCell>
        <mxCell id="pxmwZdFYC_kVEUrY3N0Y-13" value="" style="edgeStyle=orthogonalEdgeStyle;rounded=0;orthogonalLoop=1;jettySize=auto;html=1;" edge="1" parent="1" source="pxmwZdFYC_kVEUrY3N0Y-9" target="pxmwZdFYC_kVEUrY3N0Y-12">
          <mxGeometry relative="1" as="geometry" />
        </mxCell>
        <mxCell id="pxmwZdFYC_kVEUrY3N0Y-16" value="" style="edgeStyle=orthogonalEdgeStyle;rounded=0;orthogonalLoop=1;jettySize=auto;html=1;" edge="1" parent="1" source="pxmwZdFYC_kVEUrY3N0Y-9" target="pxmwZdFYC_kVEUrY3N0Y-15">
          <mxGeometry relative="1" as="geometry">
            <Array as="points">
              <mxPoint x="240" y="140" />
              <mxPoint x="240" y="140" />
            </Array>
          </mxGeometry>
        </mxCell>
        <mxCell id="pxmwZdFYC_kVEUrY3N0Y-20" value="" style="group" vertex="1" connectable="0" parent="1">
          <mxGeometry x="80" y="110" width="120" height="60" as="geometry" />
        </mxCell>
        <mxCell id="pxmwZdFYC_kVEUrY3N0Y-15" value="" style="rounded=1;whiteSpace=wrap;html=1;" vertex="1" parent="pxmwZdFYC_kVEUrY3N0Y-20">
          <mxGeometry width="120" height="60" as="geometry" />
        </mxCell>
        <mxCell id="pxmwZdFYC_kVEUrY3N0Y-17" value="Admin" style="text;html=1;strokeColor=none;fillColor=none;align=center;verticalAlign=middle;whiteSpace=wrap;rounded=0;" vertex="1" parent="pxmwZdFYC_kVEUrY3N0Y-20">
          <mxGeometry width="120" height="60" as="geometry" />
        </mxCell>
        <mxCell id="pxmwZdFYC_kVEUrY3N0Y-21" value="" style="group" vertex="1" connectable="0" parent="1">
          <mxGeometry x="320" y="20" width="120" height="40" as="geometry" />
        </mxCell>
        <mxCell id="pxmwZdFYC_kVEUrY3N0Y-1" value="" style="rounded=0;whiteSpace=wrap;html=1;" vertex="1" parent="pxmwZdFYC_kVEUrY3N0Y-21">
          <mxGeometry width="120" height="40" as="geometry" />
        </mxCell>
        <mxCell id="pxmwZdFYC_kVEUrY3N0Y-2" value="Start" style="text;html=1;strokeColor=none;fillColor=none;align=center;verticalAlign=middle;whiteSpace=wrap;rounded=0;" vertex="1" parent="pxmwZdFYC_kVEUrY3N0Y-21">
          <mxGeometry width="120" height="40" as="geometry" />
        </mxCell>
        <mxCell id="pxmwZdFYC_kVEUrY3N0Y-22" value="" style="group" vertex="1" connectable="0" parent="1">
          <mxGeometry x="600" y="110" width="120" height="60" as="geometry" />
        </mxCell>
        <mxCell id="pxmwZdFYC_kVEUrY3N0Y-12" value="" style="rounded=1;whiteSpace=wrap;html=1;" vertex="1" parent="pxmwZdFYC_kVEUrY3N0Y-22">
          <mxGeometry width="120" height="60" as="geometry" />
        </mxCell>
        <mxCell id="pxmwZdFYC_kVEUrY3N0Y-19" value="Publisher" style="text;html=1;strokeColor=none;fillColor=none;align=center;verticalAlign=middle;whiteSpace=wrap;rounded=0;" vertex="1" parent="pxmwZdFYC_kVEUrY3N0Y-22">
          <mxGeometry width="120" height="60" as="geometry" />
        </mxCell>
        <mxCell id="pxmwZdFYC_kVEUrY3N0Y-23" value="" style="group" vertex="1" connectable="0" parent="1">
          <mxGeometry x="320" y="110" width="120" height="60" as="geometry" />
        </mxCell>
        <mxCell id="pxmwZdFYC_kVEUrY3N0Y-7" value="" style="ellipse;whiteSpace=wrap;html=1;" vertex="1" parent="pxmwZdFYC_kVEUrY3N0Y-23">
          <mxGeometry width="120" height="60" as="geometry" />
        </mxCell>
        <mxCell id="pxmwZdFYC_kVEUrY3N0Y-9" value="Profiles" style="text;html=1;strokeColor=none;fillColor=none;align=center;verticalAlign=middle;whiteSpace=wrap;rounded=0;" vertex="1" parent="pxmwZdFYC_kVEUrY3N0Y-23">
          <mxGeometry width="120" height="60" as="geometry" />
        </mxCell>
        <mxCell id="pxmwZdFYC_kVEUrY3N0Y-24" value="" style="group" vertex="1" connectable="0" parent="1">
          <mxGeometry x="450" y="210" width="120" height="60" as="geometry" />
        </mxCell>
        <mxCell id="pxmwZdFYC_kVEUrY3N0Y-10" value="" style="rounded=1;whiteSpace=wrap;html=1;" vertex="1" parent="pxmwZdFYC_kVEUrY3N0Y-24">
          <mxGeometry width="120" height="60" as="geometry" />
        </mxCell>
        <mxCell id="pxmwZdFYC_kVEUrY3N0Y-18" value="Users" style="text;html=1;strokeColor=none;fillColor=none;align=center;verticalAlign=middle;whiteSpace=wrap;rounded=0;" vertex="1" parent="pxmwZdFYC_kVEUrY3N0Y-24">
          <mxGeometry width="120" height="60" as="geometry" />
        </mxCell>
        <mxCell id="pxmwZdFYC_kVEUrY3N0Y-25" value="" style="rounded=1;whiteSpace=wrap;html=1;" vertex="1" parent="1">
          <mxGeometry x="10" y="240" width="110" height="40" as="geometry" />
        </mxCell>
        <mxCell id="pxmwZdFYC_kVEUrY3N0Y-26" value="Dealer Profiles" style="text;html=1;strokeColor=none;fillColor=none;align=center;verticalAlign=middle;whiteSpace=wrap;rounded=0;" vertex="1" parent="1">
          <mxGeometry x="10" y="240" width="110" height="40" as="geometry" />
        </mxCell>
        <mxCell id="pxmwZdFYC_kVEUrY3N0Y-29" value="" style="edgeStyle=orthogonalEdgeStyle;rounded=0;orthogonalLoop=1;jettySize=auto;html=1;" edge="1" parent="1" source="pxmwZdFYC_kVEUrY3N0Y-17" target="pxmwZdFYC_kVEUrY3N0Y-26">
          <mxGeometry relative="1" as="geometry" />
        </mxCell>
        <mxCell id="pxmwZdFYC_kVEUrY3N0Y-31" value="" style="edgeStyle=orthogonalEdgeStyle;rounded=0;orthogonalLoop=1;jettySize=auto;html=1;" edge="1" parent="1" source="pxmwZdFYC_kVEUrY3N0Y-17" target="pxmwZdFYC_kVEUrY3N0Y-30">
          <mxGeometry relative="1" as="geometry">
            <Array as="points">
              <mxPoint x="140" y="280" />
              <mxPoint x="215" y="280" />
            </Array>
          </mxGeometry>
        </mxCell>
        <mxCell id="pxmwZdFYC_kVEUrY3N0Y-34" value="" style="edgeStyle=orthogonalEdgeStyle;rounded=0;orthogonalLoop=1;jettySize=auto;html=1;" edge="1" parent="1" source="pxmwZdFYC_kVEUrY3N0Y-18" target="pxmwZdFYC_kVEUrY3N0Y-33">
          <mxGeometry relative="1" as="geometry">
            <Array as="points">
              <mxPoint x="510" y="330" />
              <mxPoint x="390" y="330" />
            </Array>
          </mxGeometry>
        </mxCell>
        <mxCell id="pxmwZdFYC_kVEUrY3N0Y-36" value="" style="edgeStyle=orthogonalEdgeStyle;rounded=0;orthogonalLoop=1;jettySize=auto;html=1;" edge="1" parent="1" source="pxmwZdFYC_kVEUrY3N0Y-18" target="pxmwZdFYC_kVEUrY3N0Y-35">
          <mxGeometry relative="1" as="geometry">
            <Array as="points">
              <mxPoint x="510" y="330" />
            </Array>
          </mxGeometry>
        </mxCell>
        <mxCell id="pxmwZdFYC_kVEUrY3N0Y-39" value="" style="group" vertex="1" connectable="0" parent="1">
          <mxGeometry x="160" y="300" width="110" height="40" as="geometry" />
        </mxCell>
        <mxCell id="pxmwZdFYC_kVEUrY3N0Y-30" value="" style="rounded=1;whiteSpace=wrap;html=1;" vertex="1" parent="pxmwZdFYC_kVEUrY3N0Y-39">
          <mxGeometry width="110" height="40" as="geometry" />
        </mxCell>
        <mxCell id="pxmwZdFYC_kVEUrY3N0Y-32" value="Management" style="text;html=1;strokeColor=none;fillColor=none;align=center;verticalAlign=middle;whiteSpace=wrap;rounded=0;" vertex="1" parent="pxmwZdFYC_kVEUrY3N0Y-39">
          <mxGeometry width="110" height="40" as="geometry" />
        </mxCell>
        <mxCell id="pxmwZdFYC_kVEUrY3N0Y-43" value="" style="edgeStyle=orthogonalEdgeStyle;rounded=0;orthogonalLoop=1;jettySize=auto;html=1;" edge="1" parent="1" source="pxmwZdFYC_kVEUrY3N0Y-32" target="pxmwZdFYC_kVEUrY3N0Y-42">
          <mxGeometry relative="1" as="geometry" />
        </mxCell>
        <mxCell id="pxmwZdFYC_kVEUrY3N0Y-48" style="edgeStyle=orthogonalEdgeStyle;rounded=0;orthogonalLoop=1;jettySize=auto;html=1;exitX=0.5;exitY=1;exitDx=0;exitDy=0;entryX=0.5;entryY=0;entryDx=0;entryDy=0;" edge="1" parent="1" source="pxmwZdFYC_kVEUrY3N0Y-32" target="pxmwZdFYC_kVEUrY3N0Y-47">
          <mxGeometry relative="1" as="geometry" />
        </mxCell>
        <mxCell id="pxmwZdFYC_kVEUrY3N0Y-49" value="" style="group" vertex="1" connectable="0" parent="1">
          <mxGeometry x="220" y="510" width="120" height="60" as="geometry" />
        </mxCell>
        <mxCell id="pxmwZdFYC_kVEUrY3N0Y-46" value="" style="ellipse;whiteSpace=wrap;html=1;" vertex="1" parent="pxmwZdFYC_kVEUrY3N0Y-49">
          <mxGeometry width="120" height="60" as="geometry" />
        </mxCell>
        <mxCell id="pxmwZdFYC_kVEUrY3N0Y-47" value="Books Database" style="text;html=1;strokeColor=none;fillColor=none;align=center;verticalAlign=middle;whiteSpace=wrap;rounded=0;" vertex="1" parent="pxmwZdFYC_kVEUrY3N0Y-49">
          <mxGeometry width="120" height="60" as="geometry" />
        </mxCell>
        <mxCell id="pxmwZdFYC_kVEUrY3N0Y-50" value="" style="group" vertex="1" connectable="0" parent="1">
          <mxGeometry x="10" y="510" width="120" height="60" as="geometry" />
        </mxCell>
        <mxCell id="pxmwZdFYC_kVEUrY3N0Y-42" value="" style="ellipse;whiteSpace=wrap;html=1;" vertex="1" parent="pxmwZdFYC_kVEUrY3N0Y-50">
          <mxGeometry width="120" height="60" as="geometry" />
        </mxCell>
        <mxCell id="pxmwZdFYC_kVEUrY3N0Y-44" value="Profiles Management" style="text;html=1;strokeColor=none;fillColor=none;align=center;verticalAlign=middle;whiteSpace=wrap;rounded=0;" vertex="1" parent="pxmwZdFYC_kVEUrY3N0Y-50">
          <mxGeometry x="5" width="110" height="60" as="geometry" />
        </mxCell>
        <mxCell id="pxmwZdFYC_kVEUrY3N0Y-52" value="" style="group" vertex="1" connectable="0" parent="1">
          <mxGeometry x="570" y="360" width="120" height="50" as="geometry" />
        </mxCell>
        <mxCell id="pxmwZdFYC_kVEUrY3N0Y-35" value="" style="ellipse;whiteSpace=wrap;html=1;" vertex="1" parent="pxmwZdFYC_kVEUrY3N0Y-52">
          <mxGeometry width="120" height="50" as="geometry" />
        </mxCell>
        <mxCell id="pxmwZdFYC_kVEUrY3N0Y-38" value="Reader" style="text;html=1;strokeColor=none;fillColor=none;align=center;verticalAlign=middle;whiteSpace=wrap;rounded=0;" vertex="1" parent="pxmwZdFYC_kVEUrY3N0Y-52">
          <mxGeometry width="120" height="50" as="geometry" />
        </mxCell>
        <mxCell id="pxmwZdFYC_kVEUrY3N0Y-51" style="edgeStyle=orthogonalEdgeStyle;rounded=0;orthogonalLoop=1;jettySize=auto;html=1;exitX=0.5;exitY=1;exitDx=0;exitDy=0;" edge="1" parent="pxmwZdFYC_kVEUrY3N0Y-52" source="pxmwZdFYC_kVEUrY3N0Y-38" target="pxmwZdFYC_kVEUrY3N0Y-38">
          <mxGeometry relative="1" as="geometry" />
        </mxCell>
        <mxCell id="pxmwZdFYC_kVEUrY3N0Y-53" value="" style="group" vertex="1" connectable="0" parent="1">
          <mxGeometry x="330" y="360" width="120" height="50" as="geometry" />
        </mxCell>
        <mxCell id="pxmwZdFYC_kVEUrY3N0Y-33" value="" style="ellipse;whiteSpace=wrap;html=1;" vertex="1" parent="pxmwZdFYC_kVEUrY3N0Y-53">
          <mxGeometry width="120" height="50" as="geometry" />
        </mxCell>
        <mxCell id="pxmwZdFYC_kVEUrY3N0Y-37" value="Writer" style="text;html=1;strokeColor=none;fillColor=none;align=center;verticalAlign=middle;whiteSpace=wrap;rounded=0;" vertex="1" parent="pxmwZdFYC_kVEUrY3N0Y-53">
          <mxGeometry width="120" height="50" as="geometry" />
        </mxCell>
      </root>
    </mxGraphModel>
  </diagram>
</mxfile>
